<svg xmlns="http://www.w3.org/2000/svg" xmlns:xlink="http://www.w3.org/1999/xlink" width="500" zoomAndPan="magnify" viewBox="0 0 375 374.999991" height="500" preserveAspectRatio="xMidYMid meet" version="1.0"><defs><g/></defs><g fill="#000000" fill-opacity="1"><g transform="translate(80.15266, 168.140762)"><g><path d="M 6.710938 -0.394531 C 6.511719 -0.394531 6.316406 -0.199219 6.316406 0.0976562 C 6.316406 0.296875 6.511719 0.492188 6.710938 0.492188 L 33.253906 0.492188 C 55.453125 0 72.917969 -17.664062 72.917969 -39.566406 C 72.917969 -61.472656 55.453125 -79.035156 33.253906 -79.628906 L 6.710938 -79.628906 C 6.511719 -79.628906 6.316406 -79.429688 6.316406 -79.136719 C 6.316406 -78.839844 6.511719 -78.640625 6.710938 -78.640625 C 7.5 -78.640625 8.191406 -78.050781 8.191406 -77.261719 L 8.191406 -1.777344 C 8.191406 -1.085938 7.5 -0.394531 6.710938 -0.394531 Z M 32.167969 -78.640625 L 33.253906 -78.640625 C 53.480469 -78.050781 69.367188 -60.882812 69.367188 -39.566406 C 69.367188 -18.15625 53.480469 -0.988281 33.253906 -0.492188 L 11.347656 -0.394531 L 11.347656 -78.640625 Z M 32.167969 -78.640625 "/></g></g></g><g fill="#000000" fill-opacity="1"><g transform="translate(157.204314, 168.140762)"><g><path d="M 5.230469 -0.394531 C 4.933594 -0.394531 4.636719 -0.59375 4.539062 -0.789062 C 4.339844 -0.988281 4.339844 -1.28125 4.441406 -1.675781 L 7.5 -11.9375 L 45.191406 -11.9375 L 48.25 -1.675781 C 48.347656 -1.28125 48.347656 -0.988281 48.152344 -0.789062 C 47.953125 -0.59375 47.757812 -0.394531 47.363281 -0.394531 C 47.164062 -0.394531 46.871094 -0.199219 46.871094 0.0976562 C 46.871094 0.296875 47.164062 0.492188 47.363281 0.492188 L 53.480469 0.492188 C 53.777344 0.492188 53.972656 0.296875 53.972656 0.0976562 C 53.972656 -0.199219 53.777344 -0.394531 53.480469 -0.394531 C 52.691406 -0.394531 51.703125 -1.183594 51.507812 -1.972656 L 27.925781 -79.925781 C 27.925781 -79.925781 27.925781 -80.023438 27.925781 -80.023438 C 27.925781 -80.023438 27.824219 -80.121094 27.824219 -80.121094 C 27.824219 -80.121094 27.824219 -80.121094 27.726562 -80.121094 C 27.726562 -80.222656 27.726562 -80.222656 27.726562 -80.222656 C 27.628906 -80.222656 27.628906 -80.222656 27.628906 -80.222656 C 27.53125 -80.222656 27.53125 -80.222656 27.53125 -80.222656 C 27.429688 -80.222656 27.429688 -80.222656 27.429688 -80.222656 C 27.429688 -80.222656 27.332031 -80.222656 27.332031 -80.222656 C 27.332031 -80.222656 27.234375 -80.222656 27.234375 -80.121094 C 27.234375 -80.121094 27.136719 -80.121094 27.136719 -80.121094 C 27.136719 -80.121094 27.136719 -80.023438 27.136719 -80.023438 C 27.136719 -80.023438 27.035156 -79.925781 27.035156 -79.925781 L 27.035156 -79.726562 L 25.851562 -76.078125 C 25.851562 -76.078125 25.851562 -75.976562 25.851562 -75.976562 L 3.453125 -1.972656 C 3.257812 -1.085938 2.367188 -0.394531 1.480469 -0.394531 C 1.28125 -0.394531 1.085938 -0.199219 1.085938 0.0976562 C 1.085938 0.296875 1.28125 0.492188 1.480469 0.492188 L 5.230469 0.492188 C 5.527344 0.492188 5.722656 0.296875 5.722656 0.0976562 C 5.722656 -0.199219 5.527344 -0.394531 5.230469 -0.394531 Z M 7.796875 -12.828125 L 26.34375 -74.203125 L 44.894531 -12.828125 Z M 7.796875 -12.828125 "/></g></g></g><g fill="#000000" fill-opacity="1"><g transform="translate(212.353961, 168.140762)"><g><path d="M 1.480469 -78.640625 C 2.367188 -78.640625 3.257812 -77.953125 3.453125 -77.0625 L 27.035156 0.789062 C 27.035156 0.886719 27.035156 0.886719 27.035156 0.886719 C 27.035156 0.988281 27.136719 0.988281 27.234375 1.085938 C 27.234375 1.085938 27.332031 1.183594 27.332031 1.183594 C 27.429688 1.183594 27.429688 1.183594 27.53125 1.183594 C 27.53125 1.183594 27.628906 1.183594 27.628906 1.183594 C 27.726562 1.183594 27.726562 1.085938 27.726562 1.085938 C 27.726562 1.085938 27.726562 1.085938 27.824219 1.085938 C 27.824219 0.988281 27.925781 0.988281 27.925781 0.886719 C 27.925781 0.886719 27.925781 0.886719 27.925781 0.789062 L 29.109375 -3.058594 L 51.507812 -77.0625 C 51.703125 -77.953125 52.691406 -78.640625 53.480469 -78.640625 C 53.777344 -78.640625 53.972656 -78.839844 53.972656 -79.136719 C 53.972656 -79.429688 53.777344 -79.628906 53.480469 -79.628906 L 49.730469 -79.628906 C 49.433594 -79.628906 49.238281 -79.429688 49.238281 -79.136719 C 49.238281 -78.839844 49.433594 -78.640625 49.730469 -78.640625 C 50.027344 -78.640625 50.324219 -78.542969 50.519531 -78.347656 C 50.617188 -78.050781 50.71875 -77.753906 50.617188 -77.359375 L 28.714844 -4.835938 L 6.808594 -77.359375 C 6.609375 -77.753906 6.710938 -78.050781 6.808594 -78.347656 C 7.003906 -78.542969 7.300781 -78.640625 7.597656 -78.640625 C 7.894531 -78.640625 8.089844 -78.839844 8.089844 -79.136719 C 8.089844 -79.429688 7.894531 -79.628906 7.597656 -79.628906 L 3.453125 -79.628906 C 3.355469 -79.628906 3.355469 -79.628906 3.355469 -79.628906 L 1.480469 -79.628906 C 1.28125 -79.628906 1.085938 -79.429688 1.085938 -79.136719 C 1.085938 -78.839844 1.28125 -78.640625 1.480469 -78.640625 Z M 1.480469 -78.640625 "/></g></g></g><g fill="#000000" fill-opacity="1"><g transform="translate(267.503608, 168.140762)"><g><path d="M 39.273438 0.492188 C 39.46875 0.492188 39.765625 0.296875 39.765625 0 L 39.765625 -4.835938 C 39.765625 -5.132812 39.566406 -5.230469 39.371094 -5.328125 C 39.171875 -5.425781 38.976562 -5.328125 38.777344 -5.132812 C 37.101562 -2.269531 35.917969 -0.492188 11.347656 -0.394531 L 11.347656 -39.074219 L 22.695312 -39.074219 C 22.992188 -39.074219 23.1875 -39.273438 23.1875 -39.566406 C 23.1875 -39.765625 22.992188 -40.0625 22.695312 -40.0625 L 11.347656 -40.0625 L 11.347656 -78.640625 C 35.917969 -78.640625 37.101562 -76.765625 38.777344 -74.003906 L 38.875 -73.90625 C 38.875 -73.808594 39.074219 -73.707031 39.273438 -73.707031 C 39.273438 -73.707031 39.371094 -73.707031 39.371094 -73.707031 C 39.566406 -73.808594 39.765625 -74.003906 39.765625 -74.203125 L 39.765625 -79.136719 C 39.765625 -79.429688 39.46875 -79.628906 39.273438 -79.628906 L 6.710938 -79.628906 C 6.511719 -79.628906 6.316406 -79.429688 6.316406 -79.136719 C 6.316406 -78.839844 6.511719 -78.640625 6.710938 -78.640625 C 7.5 -78.640625 8.191406 -78.050781 8.191406 -77.261719 L 8.191406 -1.875 C 8.191406 -1.085938 7.5 -0.394531 6.710938 -0.394531 C 6.511719 -0.394531 6.316406 -0.199219 6.316406 0.0976562 C 6.316406 0.296875 6.511719 0.492188 6.710938 0.492188 Z M 39.273438 0.492188 "/></g></g></g><g fill="#000000" fill-opacity="1"><g transform="translate(80.15266, 254.512662)"><g><path d="M 8.289062 -4.835938 L 8.386719 -4.734375 C 8.386719 -4.734375 8.484375 -4.734375 8.484375 -4.734375 C 12.234375 -1.28125 17.167969 0.492188 22.300781 0.492188 C 22.597656 0.492188 22.890625 0.492188 23.1875 0.492188 C 34.042969 0 42.726562 -8.878906 42.921875 -19.636719 C 42.921875 -19.734375 42.921875 -19.734375 42.921875 -19.734375 L 42.921875 -77.261719 C 42.921875 -77.261719 43.019531 -77.261719 43.019531 -77.261719 C 43.019531 -78.050781 43.613281 -78.640625 44.402344 -78.640625 C 44.601562 -78.640625 44.894531 -78.839844 44.894531 -79.136719 C 44.894531 -79.429688 44.601562 -79.628906 44.402344 -79.628906 L 38.382812 -79.628906 C 38.085938 -79.628906 37.890625 -79.429688 37.890625 -79.136719 C 37.890625 -78.839844 38.085938 -78.640625 38.382812 -78.640625 C 39.171875 -78.640625 39.765625 -78.050781 39.765625 -77.261719 L 39.765625 -20.226562 C 39.765625 -9.667969 32.464844 -0.988281 23.1875 -0.492188 C 22.890625 -0.492188 22.597656 -0.394531 22.300781 -0.394531 C 17.367188 -0.394531 12.730469 -2.171875 9.175781 -5.425781 L 8.980469 -5.527344 C 3.257812 -10.855469 4.636719 -18.746094 5.132812 -20.03125 C 5.230469 -20.128906 5.132812 -20.328125 5.03125 -20.425781 C 5.03125 -20.621094 4.835938 -20.722656 4.636719 -20.722656 L 1.972656 -20.722656 C 1.777344 -20.722656 1.578125 -20.425781 1.578125 -20.226562 C 1.480469 -14.40625 4.046875 -8.78125 8.289062 -4.835938 Z M 8.289062 -4.835938 "/></g></g></g><g fill="#000000" fill-opacity="1"><g transform="translate(130.862721, 254.512662)"><g><path d="M 39.273438 0.492188 C 39.46875 0.492188 39.765625 0.296875 39.765625 0 L 39.765625 -4.835938 C 39.765625 -5.132812 39.566406 -5.230469 39.371094 -5.328125 C 39.171875 -5.425781 38.976562 -5.328125 38.777344 -5.132812 C 37.101562 -2.269531 35.917969 -0.492188 11.347656 -0.394531 L 11.347656 -39.074219 L 22.695312 -39.074219 C 22.992188 -39.074219 23.1875 -39.273438 23.1875 -39.566406 C 23.1875 -39.765625 22.992188 -40.0625 22.695312 -40.0625 L 11.347656 -40.0625 L 11.347656 -78.640625 C 35.917969 -78.640625 37.101562 -76.765625 38.777344 -74.003906 L 38.875 -73.90625 C 38.875 -73.808594 39.074219 -73.707031 39.273438 -73.707031 C 39.273438 -73.707031 39.371094 -73.707031 39.371094 -73.707031 C 39.566406 -73.808594 39.765625 -74.003906 39.765625 -74.203125 L 39.765625 -79.136719 C 39.765625 -79.429688 39.46875 -79.628906 39.273438 -79.628906 L 6.710938 -79.628906 C 6.511719 -79.628906 6.316406 -79.429688 6.316406 -79.136719 C 6.316406 -78.839844 6.511719 -78.640625 6.710938 -78.640625 C 7.5 -78.640625 8.191406 -78.050781 8.191406 -77.261719 L 8.191406 -1.875 C 8.191406 -1.085938 7.5 -0.394531 6.710938 -0.394531 C 6.511719 -0.394531 6.316406 -0.199219 6.316406 0.0976562 C 6.316406 0.296875 6.511719 0.492188 6.710938 0.492188 Z M 39.273438 0.492188 "/></g></g></g><g fill="#000000" fill-opacity="1"><g transform="translate(172.594925, 254.512662)"><g><path d="M 6.710938 -0.394531 C 6.511719 -0.394531 6.316406 -0.199219 6.316406 0.0976562 C 6.316406 0.296875 6.511719 0.492188 6.710938 0.492188 L 12.730469 0.492188 C 13.023438 0.492188 13.222656 0.296875 13.222656 0.0976562 C 13.222656 -0.199219 13.023438 -0.394531 12.730469 -0.394531 C 11.9375 -0.394531 11.347656 -1.085938 11.347656 -1.875 L 11.347656 -30.785156 C 11.347656 -35.324219 15.097656 -39.074219 19.636719 -39.074219 L 32.070312 -39.074219 C 37.496094 -39.074219 42.429688 -36.113281 45.09375 -31.476562 L 59.597656 -6.316406 C 61.964844 -2.269531 66.210938 0.296875 70.945312 0.492188 C 71.144531 0.492188 71.339844 0.296875 71.4375 0.0976562 C 71.4375 -0.199219 71.242188 -0.394531 70.945312 -0.492188 C 68.183594 -0.691406 65.714844 -2.269531 64.335938 -4.636719 L 49.828125 -29.800781 C 47.265625 -34.238281 43.121094 -37.496094 38.285156 -39.074219 L 42.527344 -39.074219 C 53.679688 -39.074219 62.753906 -48.152344 62.753906 -59.300781 C 62.753906 -70.550781 53.679688 -79.628906 42.527344 -79.628906 L 6.710938 -79.628906 C 6.511719 -79.628906 6.316406 -79.429688 6.316406 -79.136719 C 6.316406 -78.839844 6.511719 -78.640625 6.710938 -78.640625 C 7.5 -78.640625 8.191406 -78.050781 8.191406 -77.261719 L 8.191406 -1.875 C 8.191406 -1.085938 7.5 -0.394531 6.710938 -0.394531 Z M 11.347656 -34.832031 L 11.347656 -78.640625 L 41.246094 -78.640625 C 51.210938 -78.640625 59.300781 -69.957031 59.300781 -59.300781 C 59.300781 -48.644531 51.210938 -40.0625 41.246094 -40.0625 L 19.636719 -40.0625 C 15.984375 -40.0625 12.828125 -37.890625 11.347656 -34.832031 Z M 11.347656 -34.832031 "/></g></g></g><g fill="#000000" fill-opacity="1"><g transform="translate(245.206994, 254.512662)"><g><path d="M 6.710938 -0.394531 C 6.511719 -0.394531 6.316406 -0.199219 6.316406 0.0976562 C 6.316406 0.296875 6.511719 0.492188 6.710938 0.492188 L 12.730469 0.492188 C 13.023438 0.492188 13.222656 0.296875 13.222656 0.0976562 C 13.222656 -0.199219 13.023438 -0.394531 12.730469 -0.394531 C 11.9375 -0.394531 11.347656 -1.085938 11.347656 -1.875 L 11.347656 -30.785156 C 11.347656 -35.324219 15.097656 -39.074219 19.636719 -39.074219 L 32.070312 -39.074219 C 37.496094 -39.074219 42.429688 -36.113281 45.09375 -31.476562 L 59.597656 -6.316406 C 61.964844 -2.269531 66.210938 0.296875 70.945312 0.492188 C 71.144531 0.492188 71.339844 0.296875 71.4375 0.0976562 C 71.4375 -0.199219 71.242188 -0.394531 70.945312 -0.492188 C 68.183594 -0.691406 65.714844 -2.269531 64.335938 -4.636719 L 49.828125 -29.800781 C 47.265625 -34.238281 43.121094 -37.496094 38.285156 -39.074219 L 42.527344 -39.074219 C 53.679688 -39.074219 62.753906 -48.152344 62.753906 -59.300781 C 62.753906 -70.550781 53.679688 -79.628906 42.527344 -79.628906 L 6.710938 -79.628906 C 6.511719 -79.628906 6.316406 -79.429688 6.316406 -79.136719 C 6.316406 -78.839844 6.511719 -78.640625 6.710938 -78.640625 C 7.5 -78.640625 8.191406 -78.050781 8.191406 -77.261719 L 8.191406 -1.875 C 8.191406 -1.085938 7.5 -0.394531 6.710938 -0.394531 Z M 11.347656 -34.832031 L 11.347656 -78.640625 L 41.246094 -78.640625 C 51.210938 -78.640625 59.300781 -69.957031 59.300781 -59.300781 C 59.300781 -48.644531 51.210938 -40.0625 41.246094 -40.0625 L 19.636719 -40.0625 C 15.984375 -40.0625 12.828125 -37.890625 11.347656 -34.832031 Z M 11.347656 -34.832031 "/></g></g></g><g fill="#000000" fill-opacity="1"><g transform="translate(317.819062, 254.512662)"><g><path d="M 12.730469 -78.640625 C 13.023438 -78.640625 13.222656 -78.839844 13.222656 -79.136719 C 13.222656 -79.429688 13.023438 -79.628906 12.730469 -79.628906 L 6.710938 -79.628906 C 6.511719 -79.628906 6.316406 -79.429688 6.316406 -79.136719 C 6.316406 -78.839844 6.511719 -78.640625 6.710938 -78.640625 C 7.5 -78.640625 8.191406 -78.050781 8.191406 -77.261719 L 8.191406 -1.875 C 8.191406 -1.085938 7.5 -0.394531 6.710938 -0.394531 C 6.511719 -0.394531 6.316406 -0.199219 6.316406 0.0976562 C 6.316406 0.296875 6.511719 0.492188 6.710938 0.492188 L 12.730469 0.492188 C 13.023438 0.492188 13.222656 0.296875 13.222656 0.0976562 C 13.222656 -0.199219 13.023438 -0.394531 12.730469 -0.394531 C 11.9375 -0.394531 11.347656 -1.085938 11.347656 -1.875 L 11.347656 -77.261719 C 11.347656 -78.050781 11.9375 -78.640625 12.730469 -78.640625 Z M 12.730469 -78.640625 "/></g></g></g><g fill="#000000" fill-opacity="1"><g transform="translate(24.144383, 237.877821)"><g><path d="M 52.296875 -51.703125 C 51.902344 -51.804688 51.605469 -51.804688 51.210938 -51.804688 C 50.617188 -51.902344 49.929688 -51.902344 49.039062 -51.902344 C 46.179688 -51.902344 43.414062 -51.507812 40.851562 -50.617188 C 40.851562 -50.617188 40.75 -50.617188 40.75 -50.617188 C 34.734375 -48.546875 30.390625 -44.699219 28.613281 -40.0625 C 18.746094 -40.160156 10.753906 -48.84375 10.753906 -59.597656 C 10.753906 -70.453125 18.847656 -79.234375 28.714844 -79.234375 C 28.8125 -79.234375 28.8125 -79.234375 28.8125 -79.234375 C 29.207031 -79.234375 29.601562 -79.234375 29.996094 -79.234375 C 33.152344 -79.234375 36.210938 -78.839844 39.074219 -77.851562 C 50.324219 -74.003906 51.703125 -66.703125 50.914062 -61.277344 C 50.914062 -61.175781 50.914062 -60.980469 51.011719 -60.882812 C 51.113281 -60.78125 51.210938 -60.78125 51.410156 -60.78125 L 54.074219 -60.78125 C 54.367188 -60.78125 54.566406 -60.980469 54.566406 -61.277344 C 54.566406 -68.972656 48.644531 -75.878906 39.371094 -78.839844 C 36.410156 -79.726562 33.253906 -80.222656 29.996094 -80.222656 C 29.601562 -80.222656 29.207031 -80.222656 28.910156 -80.222656 C 28.8125 -80.222656 28.8125 -80.222656 28.8125 -80.222656 L 27.53125 -80.222656 C 16.378906 -80.222656 7.300781 -71.042969 7.300781 -59.597656 C 7.300781 -49.828125 14.109375 -41.542969 23.1875 -39.566406 C 14.109375 -37.496094 7.300781 -29.304688 7.300781 -19.4375 C 7.300781 -8.089844 16.378906 1.183594 27.53125 1.183594 L 28.8125 1.183594 C 28.910156 1.183594 29.007812 1.183594 29.207031 1.183594 C 29.304688 1.183594 29.40625 1.183594 29.601562 1.183594 L 30.195312 1.183594 C 33.449219 1.183594 36.507812 0.691406 39.371094 -0.296875 C 39.371094 -0.296875 39.46875 -0.296875 39.46875 -0.296875 C 48.644531 -3.257812 54.566406 -10.164062 54.566406 -17.859375 L 61.867188 -22.101562 C 67.292969 -25.261719 70.453125 -30.195312 70.453125 -35.421875 C 70.453125 -43.613281 62.65625 -50.519531 52.296875 -51.703125 Z M 39.074219 -1.183594 C 36.507812 -0.394531 33.746094 0.0976562 30.882812 0.199219 C 31.871094 -3.058594 34.238281 -6.019531 37.792969 -8.089844 L 51.113281 -15.886719 C 51.308594 -10.753906 49.039062 -4.636719 39.074219 -1.183594 Z M 60.585938 -25.0625 L 36.507812 -11.050781 C 31.773438 -8.289062 28.8125 -4.242188 28.121094 0.199219 C 18.453125 -0.296875 10.753906 -8.980469 10.753906 -19.4375 C 10.753906 -30.09375 18.550781 -38.679688 28.320312 -38.976562 C 27.925781 -37.792969 27.726562 -36.609375 27.726562 -35.324219 C 27.726562 -35.027344 28.023438 -34.832031 28.21875 -34.832031 L 30.589844 -34.832031 C 30.6875 -34.832031 30.882812 -34.929688 30.882812 -35.027344 C 30.984375 -35.128906 31.082031 -35.226562 31.082031 -35.421875 C 30.292969 -40.0625 31.476562 -46.277344 41.046875 -49.632812 C 41.046875 -49.730469 41.144531 -49.730469 41.144531 -49.730469 C 43.613281 -50.519531 46.277344 -50.914062 49.039062 -50.914062 C 49.828125 -50.914062 50.519531 -50.914062 51.113281 -50.914062 C 51.507812 -50.816406 51.804688 -50.816406 52.199219 -50.816406 C 61.375 -49.632812 67.984375 -43.710938 67.984375 -36.609375 C 67.984375 -32.070312 65.320312 -27.824219 60.585938 -25.0625 Z M 60.585938 -25.0625 "/></g></g></g></svg>